<svg xmlns="http://www.w3.org/2000/svg" width="900" height="900" viewBox="0 0 900 900">
<defs>
  <radialGradient id="soilGrad" cx="50%" cy="40%" r="65%">    <stop offset="0%" stop-color="#77533a"/>    <stop offset="100%" stop-color="#4e3627"/>  </radialGradient>
  <linearGradient id="cotyledonGrad" x1="0%" y1="0%" x2="0%" y2="100%">    <stop offset="0%" stop-color="#71d684"/>    <stop offset="100%" stop-color="#3aa557"/>  </linearGradient>
  <linearGradient id="leafGradMain" x1="0%" y1="0%" x2="0%" y2="100%">    <stop offset="0%" stop-color="#4fb866"/>    <stop offset="100%" stop-color="#2d8f40"/>  </linearGradient>
  <linearGradient id="leafGradDark" x1="0%" y1="0%" x2="0%" y2="100%">    <stop offset="0%" stop-color="#3ea659"/>    <stop offset="100%" stop-color="#1f6d31"/>  </linearGradient>
  <radialGradient id="fruitGradR" cx="35%" cy="30%" r="70%">    <stop offset="0%" stop-color="#ff7266"/>    <stop offset="100%" stop-color="#b81f21"/>  </radialGradient>
  <radialGradient id="fruitGradG" cx="35%" cy="30%" r="70%">    <stop offset="0%" stop-color="#b5e27b"/>    <stop offset="100%" stop-color="#4f7f26"/>  </radialGradient>
  <radialGradient id="fruitGradO" cx="35%" cy="30%" r="70%">    <stop offset="0%" stop-color="#ffc27e"/>    <stop offset="100%" stop-color="#d26a1f"/>  </radialGradient>
  <filter id="softGlow" x="-50%" y="-50%" width="200%" height="200%">    <feGaussianBlur stdDeviation="55"/>  </filter>
  <filter id="leafShadow" x="-50%" y="-50%" width="200%" height="200%">    <feDropShadow dx="0" dy="2" stdDeviation="1.5" flood-color="#194c26" flood-opacity="0.25"/>  </filter>
</defs>
<g id="glow" opacity="0.28" filter="url(#softGlow)">  <circle cx="450" cy="378.0" r="340" fill="#9de3a7"/></g>
<g id="lighting" opacity="0.18" filter="url(#softGlow)">  <ellipse cx="450" cy="162.0" rx="240" ry="160" fill="#e7ffe9"/></g>
<g id="soil">
<ellipse cx="450" cy="783" rx="330" ry="95" fill="url(#soilGrad)"/>
<circle cx="184.5" cy="789.1" r="5.4" fill="#3d2a1f" opacity="0.5"/>
<circle cx="694.4" cy="792.3" r="5.7" fill="#3d2a1f" opacity="0.5"/>
<circle cx="721.5" cy="799.1" r="5.5" fill="#3d2a1f" opacity="0.5"/>
<circle cx="648.9" cy="789.7" r="5.0" fill="#3d2a1f" opacity="0.5"/>
<circle cx="461.1" cy="785.0" r="5.2" fill="#3d2a1f" opacity="0.5"/>
<circle cx="628.3" cy="782.0" r="3.9" fill="#3d2a1f" opacity="0.5"/>
<circle cx="439.9" cy="782.0" r="5.1" fill="#3d2a1f" opacity="0.5"/>
<circle cx="696.2" cy="750.5" r="5.3" fill="#3d2a1f" opacity="0.5"/>
<circle cx="229.6" cy="801.5" r="5.0" fill="#3d2a1f" opacity="0.5"/>
<circle cx="433.6" cy="784.6" r="5.5" fill="#3d2a1f" opacity="0.5"/>
<circle cx="326.6" cy="766.5" r="5.6" fill="#3d2a1f" opacity="0.5"/>
<circle cx="621.8" cy="794.4" r="3.7" fill="#3d2a1f" opacity="0.5"/>
<circle cx="290.8" cy="761.4" r="4.2" fill="#3d2a1f" opacity="0.5"/>
<circle cx="299.4" cy="774.3" r="4.7" fill="#3d2a1f" opacity="0.5"/>
<circle cx="357.4" cy="783.4" r="4.1" fill="#3d2a1f" opacity="0.5"/>
<circle cx="655.5" cy="763.8" r="5.9" fill="#3d2a1f" opacity="0.5"/>
<circle cx="290.1" cy="785.7" r="3.4" fill="#3d2a1f" opacity="0.5"/>
<circle cx="340.0" cy="795.1" r="5.2" fill="#3d2a1f" opacity="0.5"/>
<circle cx="487.1" cy="752.0" r="4.6" fill="#3d2a1f" opacity="0.5"/>
<circle cx="531.8" cy="780.7" r="4.5" fill="#3d2a1f" opacity="0.5"/>
<circle cx="435.5" cy="790.8" r="4.3" fill="#3d2a1f" opacity="0.5"/>
<circle cx="290.2" cy="789.4" r="4.4" fill="#3d2a1f" opacity="0.5"/>
<circle cx="649.0" cy="803.4" r="5.7" fill="#3d2a1f" opacity="0.5"/>
<circle cx="373.7" cy="790.2" r="5.0" fill="#3d2a1f" opacity="0.5"/>
<circle cx="434.5" cy="784.2" r="5.2" fill="#3d2a1f" opacity="0.5"/>
<circle cx="546.7" cy="802.3" r="4.8" fill="#3d2a1f" opacity="0.5"/>
<circle cx="476.3" cy="792.8" r="5.5" fill="#3d2a1f" opacity="0.5"/>
<circle cx="239.3" cy="772.6" r="4.8" fill="#3d2a1f" opacity="0.5"/>
</g>
<g id="trunk"><path d="M 450,753 Q 454,633 450,563" fill="none" stroke="#2f8f3e" stroke-width="14" stroke-linecap="round" stroke-linejoin="round"/></g>
<g id="stem">
<path id="stem-1" d="M450,603 Q 400.0,493 350,563" fill="none" stroke="#2f8f3e" stroke-width="10" stroke-linecap="round" stroke-linejoin="round" style="display:none"/>
<path id="stem-2" d="M450,623 Q 505.0,513 560,583" fill="none" stroke="#2f8f3e" stroke-width="10" stroke-linecap="round" stroke-linejoin="round" style="display:none"/>
</g>
<g id="leaves"><g id="leaf-1" transform="rotate(-12 390 543)" filter="url(#leafShadow)">  <ellipse cx="390" cy="543" rx="85.0" ry="41.0" fill="url(#cotyledonGrad)" stroke="#2a7b3a" stroke-width="4"/>  <line x1="317.0" y1="543.0" x2="463.0" y2="543.0" stroke="#256d33" stroke-width="5" opacity="0.55"/></g><g id="leaf-2" transform="rotate(12 510 543)" filter="url(#leafShadow)">  <ellipse cx="510" cy="543" rx="85.0" ry="41.0" fill="url(#cotyledonGrad)" stroke="#2a7b3a" stroke-width="4"/>  <line x1="437.0" y1="543.0" x2="583.0" y2="543.0" stroke="#256d33" stroke-width="5" opacity="0.55"/></g><g id="leaf-3" transform="rotate(-18 340 568)" filter="url(#leafShadow)" style="display:none">  <path d="M 265.0,568.0 Q 340.0,498.0 415.0,568.0 Q 340.0,638.0 265.0,568.0 Z" fill="url(#leafGradMain)" stroke="#206c30" stroke-width="4"/>  <line x1="275.0" y1="568.0" x2="405.0" y2="568.0" stroke="#1c5a28" stroke-width="5" opacity="0.6"/></g><g id="leaf-4" transform="rotate(18 565 573)" filter="url(#leafShadow)" style="display:none">  <path d="M 490.0,573.0 Q 565.0,503.0 640.0,573.0 Q 565.0,643.0 490.0,573.0 Z" fill="url(#leafGradMain)" stroke="#206c30" stroke-width="4"/>  <line x1="500.0" y1="573.0" x2="630.0" y2="573.0" stroke="#1c5a28" stroke-width="5" opacity="0.6"/></g></g>
<g id="flowers"></g>
<g id="fruits"></g>
</svg>