<svg xmlns="http://www.w3.org/2000/svg" width="900" height="900" viewBox="0 0 900 900">
<defs>
  <radialGradient id="soilGrad" cx="50%" cy="40%" r="65%">    <stop offset="0%" stop-color="#77533a"/>    <stop offset="100%" stop-color="#4e3627"/>  </radialGradient>
  <linearGradient id="cotyledonGrad" x1="0%" y1="0%" x2="0%" y2="100%">    <stop offset="0%" stop-color="#71d684"/>    <stop offset="100%" stop-color="#3aa557"/>  </linearGradient>
  <linearGradient id="leafGradMain" x1="0%" y1="0%" x2="0%" y2="100%">    <stop offset="0%" stop-color="#4fb866"/>    <stop offset="100%" stop-color="#2d8f40"/>  </linearGradient>
  <linearGradient id="leafGradDark" x1="0%" y1="0%" x2="0%" y2="100%">    <stop offset="0%" stop-color="#3ea659"/>    <stop offset="100%" stop-color="#1f6d31"/>  </linearGradient>
  <radialGradient id="fruitGradR" cx="35%" cy="30%" r="70%">    <stop offset="0%" stop-color="#ff7266"/>    <stop offset="100%" stop-color="#b81f21"/>  </radialGradient>
  <radialGradient id="fruitGradG" cx="35%" cy="30%" r="70%">    <stop offset="0%" stop-color="#b5e27b"/>    <stop offset="100%" stop-color="#4f7f26"/>  </radialGradient>
  <radialGradient id="fruitGradO" cx="35%" cy="30%" r="70%">    <stop offset="0%" stop-color="#ffc27e"/>    <stop offset="100%" stop-color="#d26a1f"/>  </radialGradient>
  <filter id="softGlow" x="-50%" y="-50%" width="200%" height="200%">    <feGaussianBlur stdDeviation="55"/>  </filter>
  <filter id="leafShadow" x="-50%" y="-50%" width="200%" height="200%">    <feDropShadow dx="0" dy="2" stdDeviation="1.5" flood-color="#194c26" flood-opacity="0.25"/>  </filter>
</defs>
<g id="glow" opacity="0.28" filter="url(#softGlow)">  <circle cx="450" cy="378.0" r="340" fill="#9de3a7"/></g>
<g id="lighting" opacity="0.18" filter="url(#softGlow)">  <ellipse cx="450" cy="162.0" rx="240" ry="160" fill="#e7ffe9"/></g>
<g id="soil">
<ellipse cx="450" cy="783" rx="330" ry="95" fill="url(#soilGrad)"/>
<circle cx="213.7" cy="784.5" r="3.7" fill="#3d2a1f" opacity="0.5"/>
<circle cx="250.2" cy="787.1" r="4.9" fill="#3d2a1f" opacity="0.5"/>
<circle cx="697.6" cy="771.6" r="4.9" fill="#3d2a1f" opacity="0.5"/>
<circle cx="589.5" cy="752.0" r="3.3" fill="#3d2a1f" opacity="0.5"/>
<circle cx="405.9" cy="757.2" r="4.3" fill="#3d2a1f" opacity="0.5"/>
<circle cx="559.0" cy="756.4" r="3.1" fill="#3d2a1f" opacity="0.5"/>
<circle cx="413.4" cy="800.2" r="5.2" fill="#3d2a1f" opacity="0.5"/>
<circle cx="727.7" cy="759.1" r="4.0" fill="#3d2a1f" opacity="0.5"/>
<circle cx="266.5" cy="792.8" r="3.7" fill="#3d2a1f" opacity="0.5"/>
<circle cx="395.3" cy="799.8" r="5.8" fill="#3d2a1f" opacity="0.5"/>
<circle cx="525.6" cy="753.6" r="6.0" fill="#3d2a1f" opacity="0.5"/>
<circle cx="716.7" cy="804.8" r="3.9" fill="#3d2a1f" opacity="0.5"/>
<circle cx="481.0" cy="772.2" r="4.7" fill="#3d2a1f" opacity="0.5"/>
<circle cx="273.4" cy="779.4" r="5.0" fill="#3d2a1f" opacity="0.5"/>
<circle cx="433.4" cy="780.3" r="5.9" fill="#3d2a1f" opacity="0.5"/>
<circle cx="729.0" cy="757.0" r="3.4" fill="#3d2a1f" opacity="0.5"/>
<circle cx="342.3" cy="787.1" r="5.8" fill="#3d2a1f" opacity="0.5"/>
<circle cx="533.8" cy="769.7" r="5.7" fill="#3d2a1f" opacity="0.5"/>
<circle cx="666.7" cy="791.1" r="4.5" fill="#3d2a1f" opacity="0.5"/>
<circle cx="658.8" cy="766.4" r="3.3" fill="#3d2a1f" opacity="0.5"/>
<circle cx="623.5" cy="760.0" r="4.2" fill="#3d2a1f" opacity="0.5"/>
<circle cx="490.8" cy="758.7" r="3.2" fill="#3d2a1f" opacity="0.5"/>
<circle cx="238.1" cy="771.3" r="3.4" fill="#3d2a1f" opacity="0.5"/>
<circle cx="326.1" cy="802.5" r="5.5" fill="#3d2a1f" opacity="0.5"/>
<circle cx="479.4" cy="752.0" r="3.4" fill="#3d2a1f" opacity="0.5"/>
<circle cx="648.8" cy="803.6" r="3.3" fill="#3d2a1f" opacity="0.5"/>
<circle cx="305.0" cy="768.4" r="5.1" fill="#3d2a1f" opacity="0.5"/>
<circle cx="261.3" cy="749.7" r="4.2" fill="#3d2a1f" opacity="0.5"/>
</g>
<g id="trunk"><path d="M 450,753 Q 456,583 450,463" fill="none" stroke="#2f8f3e" stroke-width="16" stroke-linecap="round" stroke-linejoin="round"/></g>
<g id="stem">
<path id="stem-1" d="M450,533 Q 385.0,428 320,498" fill="none" stroke="#2f8f3e" stroke-width="11" stroke-linecap="round" stroke-linejoin="round"/>
<path id="stem-2" d="M450,553 Q 520.0,448 590,518" fill="none" stroke="#2f8f3e" stroke-width="11" stroke-linecap="round" stroke-linejoin="round"/>
<path id="stem-3" d="M450,583 Q 400.0,493 350,563" fill="none" stroke="#2f8f3e" stroke-width="9" stroke-linecap="round" stroke-linejoin="round" style="display:none"/>
</g>
<g id="leaves"><g id="leaf-1" transform="rotate(-20 310 483)" filter="url(#leafShadow)">  <path d="M 235.0,483.0 Q 310.0,411.0 385.0,483.0 Q 310.0,555.0 235.0,483.0 Z" fill="url(#leafGradMain)" stroke="#206c30" stroke-width="4"/>  <line x1="245.0" y1="483.0" x2="375.0" y2="483.0" stroke="#1c5a28" stroke-width="5" opacity="0.6"/></g><g id="leaf-2" transform="rotate(20 600 503)" filter="url(#leafShadow)">  <path d="M 525.0,503.0 Q 600.0,431.0 675.0,503.0 Q 600.0,575.0 525.0,503.0 Z" fill="url(#leafGradMain)" stroke="#206c30" stroke-width="4"/>  <line x1="535.0" y1="503.0" x2="665.0" y2="503.0" stroke="#1c5a28" stroke-width="5" opacity="0.6"/></g><g id="leaf-3" transform="rotate(-12 360 553)" filter="url(#leafShadow)">  <path d="M 290.0,553.0 Q 360.0,485.0 430.0,553.0 Q 360.0,621.0 290.0,553.0 Z" fill="url(#leafGradDark)" stroke="#206c30" stroke-width="4"/>  <line x1="300.0" y1="553.0" x2="420.0" y2="553.0" stroke="#1c5a28" stroke-width="5" opacity="0.6"/></g><g id="leaf-4" transform="rotate(12 545 563)" filter="url(#leafShadow)" style="display:none">  <path d="M 475.0,563.0 Q 545.0,495.0 615.0,563.0 Q 545.0,631.0 475.0,563.0 Z" fill="url(#leafGradDark)" stroke="#206c30" stroke-width="4"/>  <line x1="485.0" y1="563.0" x2="605.0" y2="563.0" stroke="#1c5a28" stroke-width="5" opacity="0.6"/></g></g>
<g id="flowers"></g>
<g id="fruits"></g>
</svg>